<?xml version="1.0" encoding="utf-8"?>
<!-- Generator: Adobe Illustrator 18.1.1, SVG Export Plug-In . SVG Version: 6.00 Build 0)  -->
<svg version="1.1" id="图形" xmlns="http://www.w3.org/2000/svg" xmlns:xlink="http://www.w3.org/1999/xlink" x="0px" y="0px"
	 viewBox="15.167 -16.333 1000.636 1000.678" style="enable-background:new 15.167 -16.333 1000.636 1000.678;"
	 xml:space="preserve">
<g id="_x30_2.-家庭作业1024" sketch:type="MSPage">
	
		<g id="作业_单次作业_未布置作业提醒" transform="translate(-691.000000, -683.000000)" sketch:type="MSArtboardGroup">
		<g id="Right" transform="translate(180.000000, 44.000000)" sketch:type="MSLayerGroup">
			<g id="完成质量" transform="translate(25.000000, 488.000000)">
				<g id="优" transform="translate(406.000000, 132.333008)">
					<g id="ico_up-copy-2">
						<g sketch:type="MSShapeGroup">
							<path id="path-1" d="M386.736,586.919c-19.054-18.222-50.048-18.222-69.151,0c-19.103,18.13-19.103,47.609,0,65.785
								l240.882,276.379c10.185,9.688,23.684,13.84,37.036,13.148c13.304,0.692,26.802-3.46,37.036-13.148l240.882-276.379
								c19.054-18.176,19.054-47.655,0-65.785c-19.152-18.222-50.145-18.222-69.199,0L643.455,771.356V111.848
								c0-25.557-21.783-46.225-48.732-46.225c-26.949,0-48.732,20.667-48.732,46.225v657.755L386.736,586.919z"/>
						</g>
						<g>
							<path id="path-1_1_" d="M386.736,586.919c-19.054-18.222-50.048-18.222-69.151,0c-19.103,18.13-19.103,47.609,0,65.785
								l240.882,276.379c10.185,9.688,23.684,13.84,37.036,13.148c13.304,0.692,26.802-3.46,37.036-13.148l240.882-276.379
								c19.054-18.176,19.054-47.655,0-65.785c-19.152-18.222-50.145-18.222-69.199,0L643.455,771.356V111.848
								c0-25.557-21.783-46.225-48.732-46.225c-26.949,0-48.732,20.667-48.732,46.225v657.755L386.736,586.919z"/>
						</g>
					</g>
				</g>
			</g>
		</g>
	</g>
</g>
</svg>
