<svg xmlns="http://www.w3.org/2000/svg" xmlns:xlink="http://www.w3.org/1999/xlink" preserveAspectRatio="xMidYMid"
     width="16" height="16" viewBox="0 0 16 16">
    <defs>
        <style>
            .cls-1 {
            fill: #2eb66e;
            fill-rule: evenodd;
            }
        </style>
    </defs>
    <path d="M15.000,15.999 L1.000,15.999 C0.448,15.999 -0.000,15.551 -0.000,14.999 L-0.000,9.000 L-0.000,9.000 L-0.000,7.000 L16.000,6.999 L16.000,14.999 C16.000,15.551 15.552,15.999 15.000,15.999 ZM-0.000,3.000 L-0.000,3.000 L-0.000,0.999 C-0.000,0.447 0.448,-0.001 1.000,-0.001 L6.000,-0.001 C6.552,-0.001 7.000,0.447 7.000,0.999 L7.000,1.999 L15.000,1.999 C15.552,1.999 16.000,2.446 16.000,2.999 L16.000,4.999 L-0.000,5.000 L-0.000,3.000 Z"
          class="cls-1"/>
</svg>
