<svg xmlns="http://www.w3.org/2000/svg" xmlns:xlink="http://www.w3.org/1999/xlink" preserveAspectRatio="xMidYMid" width="20" height="16" viewBox="0 0 20 16">
  <defs>
    <style>
      .cls-1 {
        fill: #06b77b;
        fill-rule: evenodd;
      }
    </style>
  </defs>
  <path d="M13.645,9.255 L20.000,4.250 L20.000,14.000 C20.000,14.195 19.963,14.380 19.911,14.558 L13.645,9.255 ZM0.032,1.686 C0.183,0.732 1.003,-0.000 2.000,-0.000 L18.000,-0.000 C18.997,-0.000 19.817,0.732 19.968,1.686 L10.000,9.538 L0.032,1.686 ZM0.089,14.558 C0.037,14.380 -0.000,14.195 -0.000,14.000 L-0.000,4.250 L6.355,9.255 L0.089,14.558 ZM10.000,12.000 L12.018,10.536 L18.421,15.954 C18.285,15.983 18.144,16.000 18.000,16.000 L2.000,16.000 C1.855,16.000 1.715,15.983 1.579,15.954 L7.982,10.536 L10.000,12.000 Z" class="cls-1"/>
</svg>
