<svg xmlns="http://www.w3.org/2000/svg" xmlns:xlink="http://www.w3.org/1999/xlink" preserveAspectRatio="xMidYMid" width="20" height="19" viewBox="0 0 20 19">
  <defs>
    <style>
      .cls-1 {
        fill: silver;
        fill-rule: evenodd;
      }
    </style>
  </defs>
  <path d="M19.979,17.212 L13.063,9.984 C13.565,9.794 17.000,8.000 17.000,8.000 L10.000,2.000 L3.000,8.000 L6.947,9.974 L0.021,17.212 C0.014,17.141 -0.000,17.072 -0.000,17.000 L-0.000,8.000 C3.311,5.351 6.316,3.000 10.000,-0.000 C13.802,3.000 16.630,5.292 20.000,8.000 L20.000,17.000 C20.000,17.072 19.986,17.141 19.979,17.212 ZM18.773,18.844 C18.535,18.944 18.274,19.000 18.000,19.000 L2.000,19.000 C1.726,19.000 1.465,18.944 1.227,18.844 L10.000,10.000 C9.983,10.017 18.773,18.844 18.773,18.844 Z" class="cls-1"/>
</svg>
