<svg xmlns="http://www.w3.org/2000/svg" xmlns:xlink="http://www.w3.org/1999/xlink" preserveAspectRatio="xMidYMid"
     width="16.25" height="16.156" viewBox="0 0 16.25 16.156">
    <defs>
        <style>
            .cls-1 {
            fill: #3d453c;
            fill-rule: evenodd;
            }
        </style>
    </defs>
    <path d="M6.724,13.990 C6.427,14.278 4.025,16.023 2.230,14.076 C0.142,12.100 1.953,10.122 2.281,9.744 C4.824,7.216 10.642,1.618 10.642,1.618 C11.405,0.893 12.615,0.880 13.349,1.593 C13.790,2.222 14.068,3.487 13.324,4.222 L4.938,12.328 C4.935,12.331 4.932,12.333 4.929,12.335 C4.651,12.588 4.220,12.589 3.957,12.333 C3.342,11.736 4.563,10.835 3.978,11.406 L10.275,5.288 L9.518,4.552 L3.304,10.670 L3.304,10.670 C3.302,10.672 3.300,10.674 3.298,10.676 C3.292,10.682 3.287,10.688 3.281,10.694 C2.589,11.384 2.504,12.378 3.176,13.050 C4.224,14.098 5.433,13.250 5.709,12.967 L14.081,4.957 C15.258,3.796 14.699,1.622 14.129,0.835 C12.971,-0.291 11.064,-0.263 9.869,0.898 C8.265,2.449 7.163,3.442 1.541,8.991 C-0.646,11.158 -0.295,13.090 1.449,14.834 C4.459,17.843 7.484,14.728 7.484,14.728 L16.246,6.214 L15.488,5.478 L6.724,13.990 Z"
          class="cls-1"/>
</svg>
