<svg xmlns="http://www.w3.org/2000/svg" xmlns:xlink="http://www.w3.org/1999/xlink" preserveAspectRatio="xMidYMid" width="61" height="61" viewBox="0 0 61 61">
  <defs>
    <style>
      .cls-1 {
        fill: #06b77b;
        fill-rule: evenodd;
      }
    </style>
  </defs>
  <path d="M56.500,61.000 L29.000,61.000 L29.000,60.962 C12.852,60.180 0.000,46.842 0.000,30.500 C0.000,13.655 13.655,-0.000 30.500,-0.000 C46.842,-0.000 60.180,12.852 60.962,29.000 L61.000,29.000 L61.000,56.500 C61.000,58.985 58.985,61.000 56.500,61.000 ZM30.500,6.000 C17.521,6.000 7.000,16.521 7.000,29.500 C7.000,42.479 17.521,53.000 30.500,53.000 C43.479,53.000 54.000,42.479 54.000,29.500 C54.000,16.521 43.479,6.000 30.500,6.000 ZM30.500,46.000 C21.387,46.000 14.000,38.613 14.000,29.500 C14.000,20.387 21.387,13.000 30.500,13.000 C32.003,13.000 33.451,13.218 34.835,13.595 C33.695,14.910 33.000,16.622 33.000,18.500 C33.000,22.642 36.358,26.000 40.500,26.000 C42.634,26.000 44.556,25.104 45.921,23.673 C46.607,25.487 47.000,27.446 47.000,29.500 C47.000,38.613 39.613,46.000 30.500,46.000 Z" class="cls-1"/>
</svg>
