<svg xmlns="http://www.w3.org/2000/svg" xmlns:xlink="http://www.w3.org/1999/xlink" preserveAspectRatio="xMidYMid" width="17" height="21" viewBox="0 0 17 21">
  <defs>
    <style>
      .cls-1 {
        fill: silver;
        fill-rule: evenodd;
      }
    </style>
  </defs>
  <path d="M14.316,21.000 L2.684,21.000 C1.202,21.000 -0.000,19.836 -0.000,18.401 L-0.000,10.604 C-0.000,9.169 1.202,8.005 2.684,8.005 L2.997,8.005 L2.997,5.802 C2.997,2.602 5.461,0.009 8.500,0.009 C11.539,0.009 14.003,2.602 14.003,5.802 L14.003,8.005 L14.316,8.005 C15.798,8.005 17.000,9.169 17.000,10.604 L17.000,18.401 C17.000,19.836 15.798,21.000 14.316,21.000 ZM12.000,6.000 C12.000,3.785 10.604,1.791 8.500,1.791 C6.396,1.791 5.000,3.785 5.000,6.000 L5.000,8.005 L12.000,8.005 L12.000,6.000 ZM14.992,11.815 C14.992,10.809 14.217,9.994 13.261,9.994 L3.739,9.994 C2.783,9.994 2.008,10.809 2.008,11.815 L2.008,17.190 C2.008,18.196 2.783,19.011 3.739,19.011 L13.261,19.011 C14.217,19.011 14.992,18.196 14.992,17.190 L14.992,11.815 ZM8.500,17.000 C8.224,17.000 8.000,16.776 8.000,16.500 L8.000,12.500 C8.000,12.224 8.224,12.000 8.500,12.000 C8.776,12.000 9.000,12.224 9.000,12.500 L9.000,16.500 C9.000,16.776 8.776,17.000 8.500,17.000 Z" class="cls-1"/>
</svg>
