<?xml version="1.0" encoding="utf-8"?>
<!-- Generator: Adobe Illustrator 19.0.0, SVG Export Plug-In . SVG Version: 6.00 Build 0)  -->
<svg version="1.1" id="radio_x5F_checked_1_" xmlns="http://www.w3.org/2000/svg" xmlns:xlink="http://www.w3.org/1999/xlink"
	 x="0px" y="0px" viewBox="15.167 -16.333 1000.636 1000.678" style="enable-background:new 15.167 -16.333 1000.636 1000.678;"
	 xml:space="preserve">
<path id="radio_x5F_normal" d="M515.357,921.808c-241.312,0-437.625-196.338-437.625-437.651S274.045,46.532,515.357,46.532
	c241.287,0,437.625,196.313,437.625,437.625S756.644,921.808,515.357,921.808z M515.357,98.018
	c-212.93,0-386.14,173.21-386.14,386.14c0,212.955,173.21,386.165,386.14,386.165s386.14-173.21,386.14-386.165
	C901.497,271.228,728.287,98.018,515.357,98.018z"/>
<path id="radio_x5F_checked" d="M515.884,234.648L515.884,234.648c137.358,0,248.709,111.351,248.709,248.709l0,0
	c0,137.358-111.351,248.71-248.709,248.71l0,0c-137.358,0-248.709-111.351-248.709-248.71l0,0
	C267.175,345.999,378.526,234.648,515.884,234.648z"/>
</svg>
