<?xml version="1.0" encoding="utf-8"?>
<!-- Generator: Adobe Illustrator 19.0.0, SVG Export Plug-In . SVG Version: 6.00 Build 0)  -->
<svg version="1.1" id="search" xmlns="http://www.w3.org/2000/svg" xmlns:xlink="http://www.w3.org/1999/xlink" x="0px" y="0px"
	 viewBox="15.167 -16.333 1000.636 1000.678" style="enable-background:new 15.167 -16.333 1000.636 1000.678;"
	 xml:space="preserve">
<path id="search_1_" d="M446.558,715.001c-171.665,0-310.827-136.733-310.827-305.67c0-168.937,139.161-305.943,310.827-305.943
	c171.667,0,310.855,137.006,310.855,305.943C757.413,578.268,618.225,715.001,446.558,715.001L446.558,715.001z M944.035,873.294
	L718.631,651.41c59.006-64.136,95.277-148.741,95.277-242.08c0-199.777-164.461-361.618-367.35-361.618
	S79.209,209.554,79.209,409.331c0,199.504,164.46,361.345,367.349,361.345c87.662,0,168.063-30.294,231.218-80.784l226.304,222.702
	c11.054,10.917,28.93,10.917,39.956,0C955.089,901.951,955.089,884.211,944.035,873.294L944.035,873.294z"/>
</svg>
