<?xml version="1.0" encoding="utf-8"?>
<!-- Generator: Adobe Illustrator 18.1.1, SVG Export Plug-In . SVG Version: 6.00 Build 0)  -->
<svg version="1.1" id="图形" xmlns="http://www.w3.org/2000/svg" xmlns:xlink="http://www.w3.org/1999/xlink" x="0px" y="0px"
	 viewBox="15.167 -16.333 1000.636 1000.678" style="enable-background:new 15.167 -16.333 1000.636 1000.678;"
	 xml:space="preserve">
<g id="_x30_2.-家庭作业1024" sketch:type="MSPage">
	
		<g id="作业_单次作业_未布置作业提醒" transform="translate(-691.000000, -683.000000)" sketch:type="MSArtboardGroup">
		<g id="Right" transform="translate(180.000000, 44.000000)" sketch:type="MSLayerGroup">
			<g id="完成质量" transform="translate(25.000000, 488.000000)">
				<g id="优" transform="translate(406.000000, 132.333008)">
					<g id="ico_up-copy-2">
						<g sketch:type="MSShapeGroup">
							<path id="path-1" d="M545.991,238.325V896.08c0,25.557,21.783,46.224,48.732,46.224c26.948,0,48.732-20.667,48.732-46.224
								V236.572l160.767,184.437c19.054,18.222,50.047,18.222,69.199,0c19.054-18.13,19.054-47.609,0-65.785L632.539,78.845
								c-10.234-9.688-23.732-13.84-37.036-13.148c-13.353-0.692-26.851,3.46-37.036,13.148L317.585,355.224
								c-19.103,18.176-19.103,47.655,0,65.785c19.103,18.222,50.096,18.222,69.151,0L545.991,238.325z"/>
						</g>
						<g>
							<path id="path-1_1_" d="M545.991,238.325V896.08c0,25.557,21.783,46.224,48.732,46.224c26.948,0,48.732-20.667,48.732-46.224
								V236.572l160.767,184.437c19.054,18.222,50.047,18.222,69.199,0c19.054-18.13,19.054-47.609,0-65.785L632.539,78.845
								c-10.234-9.688-23.732-13.84-37.036-13.148c-13.353-0.692-26.851,3.46-37.036,13.148L317.585,355.224
								c-19.103,18.176-19.103,47.655,0,65.785c19.103,18.222,50.096,18.222,69.151,0L545.991,238.325z"/>
						</g>
					</g>
				</g>
			</g>
		</g>
	</g>
</g>
</svg>
