<svg xmlns="http://www.w3.org/2000/svg" xmlns:xlink="http://www.w3.org/1999/xlink" preserveAspectRatio="xMidYMid" width="15" height="22" viewBox="0 0 15 22">
  <defs>
    <style>
      .cls-1 {
        fill: silver;
        fill-rule: evenodd;
      }
    </style>
  </defs>
  <path d="M11.464,22.001 L3.527,22.001 C1.579,22.001 -0.000,20.348 -0.000,18.307 L-0.000,13.690 C-0.000,12.140 0.913,10.818 2.205,10.269 C1.442,9.205 0.989,7.905 0.989,6.497 C0.989,2.909 3.902,-0.000 7.496,-0.000 C11.090,-0.000 14.003,2.909 14.003,6.497 C14.003,7.905 13.550,9.205 12.787,10.270 C14.079,10.818 14.992,12.140 14.992,13.690 L14.992,18.307 C14.992,20.348 13.413,22.001 11.464,22.001 ZM7.496,2.013 C5.016,2.013 3.005,4.027 3.005,6.512 C3.005,8.997 5.016,11.011 7.496,11.011 C9.977,11.011 11.987,8.997 11.987,6.512 C11.987,4.027 9.977,2.013 7.496,2.013 ZM13.009,14.665 C13.009,13.338 12.084,12.246 10.876,12.042 C9.890,12.642 8.736,12.995 7.496,12.995 C6.258,12.995 5.106,12.643 4.120,12.044 C2.925,12.260 2.013,13.348 2.013,14.665 L2.013,17.332 C2.013,18.804 3.149,19.998 4.551,19.998 L10.471,19.998 C11.873,19.998 13.009,18.804 13.009,17.332 L13.009,14.665 Z" class="cls-1"/>
</svg>
