<svg xmlns="http://www.w3.org/2000/svg" xmlns:xlink="http://www.w3.org/1999/xlink" preserveAspectRatio="xMidYMid"
     width="16" height="16" viewBox="0 0 16 16">
    <defs>
        <style>
            .cls-1 {
            fill: #2eb66e;
            fill-rule: evenodd;
            }
        </style>
    </defs>
    <path d="M14.000,15.998 L2.000,15.998 C0.895,15.998 -0.000,15.103 -0.000,13.999 L-0.000,4.998 L16.000,4.998 L16.000,13.999 C16.000,15.103 15.104,15.998 14.000,15.998 ZM10.000,8.000 L9.000,11.000 L9.000,8.000 L7.000,8.000 L7.000,11.000 L6.000,8.000 L4.000,8.000 L5.000,14.000 C5.000,14.000 6.988,14.054 7.000,14.000 C7.008,13.964 8.000,12.000 8.000,12.000 C8.000,12.000 8.907,13.972 9.000,14.000 C9.022,14.007 11.000,14.000 11.000,14.000 L12.000,8.000 L10.000,8.000 ZM-0.000,1.999 C-0.000,0.894 0.895,-0.001 2.000,-0.001 L14.000,-0.001 C15.104,-0.001 16.000,0.894 16.000,1.999 L16.000,2.999 L-0.000,2.999 L-0.000,1.999 Z"
          class="cls-1"/>
</svg>
